Coordinates
version=1
nRows=6
nColumns=36
inDegrees=yes

Units are S.I. units (second, meters, Newtons, ...)
If the header above contains a line with 'inDegrees', this indicates whether rotational values are in degrees (yes) or radians (no).

endheader
time	pelvis_tilt	pelvis_list	pelvis_rotation	pelvis_tx	pelvis_ty	pelvis_tz	hip_flexion_r	hip_adduction_r	hip_rotation_r	knee_angle_r	knee_angle_r_beta	ankle_angle_r	subtalar_angle_r	mtp_angle_r	hip_flexion_l	hip_adduction_l	hip_rotation_l	knee_angle_l	knee_angle_l_beta	ankle_angle_l	subtalar_angle_l	mtp_angle_l	lumbar_extension	lumbar_bending	lumbar_rotation	arm_flex_r	arm_add_r	arm_rot_r	elbow_flex_r	pro_sup_r	arm_flex_l	arm_add_l	arm_rot_l	elbow_flex_l	pro_sup_l
      1.66000000	     -4.83554996	      3.17912072	     83.58147596	     -0.22488522	      0.96105437	     -1.02245824	      7.22991395	    -10.58788136	     -2.24520187	     61.91932909	      1.08069616	    -20.73775671	    -25.38479804	     -7.49999998	      2.72539592	      8.11964329	    -14.71584560	     15.36283175	      0.26813200	      7.90414211	      2.53144698	     -7.49999998	    -15.06426898	     -6.27701367	      1.51866975	      3.24393838	     -4.24608797	    -43.08379686	     35.26021904	    102.28301109	     -0.05599936	     -4.54638424	    -38.99884329	     31.22958548	     88.69855752
      1.67000000	     -4.57891448	      3.09318360	     83.64882484	     -0.22546907	      0.96216614	     -1.03352223	      8.93102109	    -10.30035473	     -2.40079677	     62.61016723	      1.09275356	    -18.01780629	    -27.44615686	     -7.49999998	      1.59181843	      8.06815406	    -14.51993042	     14.43093195	      0.25186728	      7.92417851	      3.08620237	     -7.49999998	    -15.26455948	     -5.92803070	      1.25453298	      3.12255612	     -4.32141198	    -43.17294999	     34.75577750	    102.48026250	      0.76552992	     -4.61881948	    -38.62942845	     31.51877516	     88.85412986
      1.68000000	     -4.47977434	      3.09164549	     83.46002118	     -0.22576078	      0.96323165	     -1.04528447	     10.52874266	    -10.20297376	     -2.40710215	     63.04018907	      1.10025886	    -14.97845229	    -29.13824765	     -7.49999997	      0.17152182	      8.20302551	    -14.96380749	     13.10713989	      0.22876275	      7.79856858	      4.20153954	     -7.49999997	    -15.37548796	     -5.81789924	      1.21940556	      2.99467469	     -4.34983820	    -43.46640777	     34.13799541	    101.61686228	      1.08734170	     -4.88880703	    -36.85840381	     32.21552526	     87.95206771
      1.69000000	     -4.12192974	      2.83486050	     83.80756602	     -0.22648327	      0.96393267	     -1.05621755	     12.19773387	     -9.80778310	     -3.00956699	     63.10482606	      1.10138699	    -12.30242997	    -30.59129189	     -7.49999995	     -0.61607859	      7.91049180	    -14.82995853	     12.55400377	      0.21910870	      7.90946598	      5.22662573	     -7.49999995	    -15.42337420	     -5.30057430	      0.82462190	      2.84968238	     -4.31890709	    -43.99697489	     33.75727175	    102.67676648	      1.66163665	     -5.36643417	    -34.77561119	     32.67892396	     87.52344181
      1.70000000	     -3.85386412	      2.69200257	     84.05706864	     -0.22732188	      0.96464730	     -1.06738500	     13.71743675	     -9.54162408	     -3.55403233	     62.86952200	      1.09728016	     -9.69847614	    -31.35684460	     -7.49999992	     -1.65039590	      7.79593562	    -14.64155296	     11.72747872	      0.20468312	      7.86680886	      5.92959500	     -7.49999992	    -15.54576167	     -4.87579475	      0.50048540	      2.74940806	     -4.26350773	    -44.86712611	     33.39872139	    104.24996047	      2.62235726	     -5.39744049	    -34.46209830	     32.81889364	     87.97504247
      1.71000000	     -3.53933493	      2.74933806	     84.40542725	     -0.22822674	      0.96557289	     -1.07860722	     14.85004918	     -9.22272010	     -4.19677052	     62.20803263	      1.08573499	     -7.32879381	    -31.79304001	     -7.49999992	     -2.88472718	      7.63660644	    -14.28441386	     10.95796493	      0.19125257	      7.71709954	      6.43093989	     -7.49999992	    -15.90712722	     -4.40903115	      0.11284401	      2.32226740	     -4.44888636	    -44.17410966	     33.32358024	    101.93517462	      3.40008346	     -5.52600158	    -33.40202902	     33.32868493	     86.14977363
